<?xml version="1.0" encoding="utf-8"?>
<svg id="bd041bcc-8298-4257-9672-15f566c627a4" xmlns="http://www.w3.org/2000/svg" viewBox="0 0 1920 386.58"><title>Logo Mastelli</title><path d="M1198.07,87.2c0,5.4-2.31,7-5,7-3.08,0-5.4-2.7-10.41-6.56a79.59,79.59,0,0,0-50.94-18.14c-51.31,0-91.44,39.36-91.44,100.32s40.13,100.33,91.44,100.33c19.68,0,37.43-6.56,50.94-17.75,5-3.86,7.33-6.95,10.41-6.95,2.71,0,5,1.55,5,6.95v13.89H1234V72.93h-35.89Zm-59.81,152.41c-34.34,0-60.19-28.16-60.19-69.84s25.85-69.83,60.19-69.83,61,28.16,61,69.83S1172.6,239.61,1138.26,239.61Z" transform="translate(0 0)"/><rect x="1741.35" y="3.86" width="35.88" height="262.38"/><rect x="1809.65" y="3.86" width="36.27" height="262.38"/><rect x="1878.33" y="72.93" width="35.88" height="193.31"/><path d="M404.76,0C325.27,0,302.89,88.75,263.15,151.64c-20.83,32.8-45.92,60.58-88,60.58-26.63,0-39.36-15.44-45.53-32.8-11.19-32-6.56-77.17-32.8-77.17-13.89,0-21.61,12-38.59,46.69L0,266.24H4.24l15.82-29.33C53.25,176.33,70.23,152.41,93,152.8c15.82.38,24.31,12,31.64,33.95,10.8,32.8,13.12,83.35,51.7,83.35,40.52,0,61-62.13,96.08-115,39.36-59,76-83.73,119.62-83.73,60.19,0,109.19,36.66,209.13,143.54L649,266.24h4.25L523.22,88C474.6,21.22,445.27,0,404.76,0Z" transform="translate(0 0)"/><path d="M879,192.54c-1.93,4.63-4.63,8.49-9.65,8.49s-8.1-3.86-10-8.49L778.65,3.86H725.4V266.24h35.11v-181q0-11.56,8.11-11.57c5.79,0,8.49,4.24,13.12,15l74.85,177.49H880.9L956.14,88.75c4.63-10.81,7.33-15,13.12-15q8.1,0,8.1,11.57v181h35.12V3.86h-54Z" transform="translate(0 0)"/><path d="M1484,62.89v-39h-36.27v39c0,6.56-3.48,10-10,10h-22.37v28.55h22.37c6.56,0,10,3.86,10,10.42V230.74c0,22.76,12,35.5,39.74,35.5h39V237.68h-27.78c-10.8,0-14.66-4.63-14.66-14.27V111.9c0-6.56,3.86-10.42,10.42-10.42h32V72.93h-32C1487.85,72.93,1484,69.45,1484,62.89Z" transform="translate(0 0)"/><ellipse cx="1896.08" cy="23.54" rx="23.92" ry="23.54"/><path d="M1360.9,157l-37-9.64c-22-6.18-30.87-13.12-30.87-24.7,0-13.89,16.21-25.08,40.9-25.08,26.62,0,39.36,14.28,44.76,30.48l32.8-6.94c-7.33-31.64-37.43-51.71-77.56-51.71-43.6,0-75.24,22.38-75.24,54.79,0,31.26,16.59,45.15,51.7,54l39.75,10c23.53,6.17,33.18,11.19,33.18,26.23,0,18.14-17.75,27.4-44.37,27.4-32.41,0-47.46-19.29-51.32-37.81l-32.41,7.33c5,34,33.57,58.65,83,58.65s79.09-24.7,79.09-57.88C1417.23,181,1396,166.69,1360.9,157Z" transform="translate(0 0)"/><path d="M1626.75,238.84c-24.31,0-48.61-14.27-57.49-38.2a24.39,24.39,0,0,1-1.93-8.87c0-7,5.4-12.35,15.05-12.35h136.21v-9.65c0-57.1-30.87-100.32-93.77-100.32-61,0-96.85,45.15-96.85,100.32s33.57,100.33,98.4,100.33c49.39,0,79.87-27,93.37-56.72l-30.87-14.28C1680.39,216.08,1663,238.84,1626.75,238.84ZM1569.26,132c4.24-10.8,19.29-32,53.63-32s49.39,21.22,53.64,32a24.7,24.7,0,0,1,1.93,8.88c0,6.94-5,12-14.67,12h-81.41c-9.65,0-15.05-5-15.05-12A24.49,24.49,0,0,1,1569.26,132Z" transform="translate(0 0)"/><path d="M750.85,300.21H762l25.83,68.59H777.43L772,354h-31.5l-5.3,14.85H725.4Zm-7.38,45.51H769L756.15,310Z" transform="translate(0 0)"/><path d="M794.92,305.13h8.61V317.9h9.65v6.91h-9.65V355c0,5.3.38,6.62,5.3,6.62h4.35v7.19h-6.24c-9.75,0-12-2.18-12-12.77V324.81h-8V317.9h8Z" transform="translate(0 0)"/><path d="M848.08,305.13h8.61V317.9h9.65v6.91h-9.65V355c0,5.3.38,6.62,5.3,6.62h4.35v7.19H860.1c-9.75,0-12-2.18-12-12.77V324.81h-8V317.9h8Z" transform="translate(0 0)"/><path d="M883,325.57c2.93-4.83,7.85-8.52,16.46-8.52,12.29,0,16.74,7.95,16.74,19.59V368.8h-8.61V339.19c0-7.85-1.32-14.66-11.16-14.66-8.33,0-13.43,5.67-13.43,16.64V368.8h-8.61V300.21H883Z" transform="translate(0 0)"/><path d="M934.23,346.19c.29,11,8.23,16.27,15.71,16.27s11.73-3.41,13.91-8.42h8.89c-2.27,8.71-10.41,16-22.8,16-16.08,0-25-11.54-25-26.58,0-16.18,10.79-26.4,24.69-26.4,15.62,0,24.79,13,23.75,29.14Zm.1-7.38h30c-.29-7.19-5.49-14.38-14.67-14.38C942.09,324.43,935.09,328.59,934.33,338.81Z" transform="translate(0 0)"/><path d="M1051.34,343.54c0,18.45-12.58,26.49-24.41,26.49s-24.41-8-24.41-26.49,12.59-26.49,24.41-26.49S1051.34,325.09,1051.34,343.54Zm-24.41,18.92c7.85,0,15.23-5.86,15.23-18.92,0-13.62-7.38-18.92-15.23-18.92s-15.23,5-15.23,18.92C1011.7,357.16,1019.08,362.46,1026.93,362.46Z" transform="translate(0 0)"/><path d="M1086.05,326.89a31.31,31.31,0,0,0-4.83-.38c-7.94,0-11.92,4.35-11.92,15.61V368.8h-8.61V317.9h8.42v8.9c2.56-5.77,7.67-8.9,14.38-9.18a23.59,23.59,0,0,1,2.56.1Z" transform="translate(0 0)"/><path d="M1148.66,317.9h8.61V362c0,10.31-1.9,14.66-4.83,17.88-3.69,4.25-10,6.71-17.59,6.71-11.64,0-19.3-5.29-20.91-15.6h9.18c1,4.54,4,8,11.82,8,4.64,0,8-1.23,10.41-3.79,1.79-2.08,3.31-4.25,3.31-11.25v-4.83c-3.12,5.39-8,8.8-16.18,8.8-11.26,0-21.57-9.08-21.57-25.45s10.31-25.45,21.57-25.45c8.23,0,13.06,3.5,16.18,8.9Zm-14,6.53c-8.42,0-14.38,6.43-14.38,18.07s6,18.17,14.38,18.17c7.56,0,14.38-5.21,14.38-18.17S1142.22,324.43,1134.66,324.43Z" transform="translate(0 0)"/><path d="M1198.75,325.57c2.93-4.83,7.85-8.52,16.46-8.52,12.29,0,16.74,7.95,16.74,19.59V368.8h-8.61V339.19c0-7.85-1.32-14.66-11.16-14.66-8.33,0-13.43,5.67-13.43,16.64V368.8h-8.61V317.9h8.61Z" transform="translate(0 0)"/><path d="M1312.73,343.54c0,18.45-12.58,26.49-24.41,26.49s-24.41-8-24.41-26.49,12.59-26.49,24.41-26.49S1312.73,325.09,1312.73,343.54Zm-24.41,18.92c7.85,0,15.23-5.86,15.23-18.92,0-13.62-7.38-18.92-15.23-18.92s-15.23,5-15.23,18.92C1273.09,357.16,1280.47,362.46,1288.32,362.46Z" transform="translate(0 0)"/><path d="M1323.35,314.21c0-10.59,2.09-14,13.72-14h4.45v7.19h-4.26c-4.54,0-5.3,1-5.3,6.34v4.16h9.56v6.91H1332v44h-8.61v-44h-7.09V317.9h7.09Z" transform="translate(0 0)"/><path d="M1398.55,326.89a31.1,31.1,0,0,0-4.82-.38c-8,0-11.92,4.35-11.92,15.61V368.8h-8.61V317.9h8.42v8.9c2.55-5.77,7.66-8.9,14.38-9.18a23.42,23.42,0,0,1,2.55.1Z" transform="translate(0 0)"/><path d="M1411.1,346.19c.28,11,8.23,16.27,15.7,16.27s11.74-3.41,13.91-8.42h8.89c-2.27,8.71-10.4,16-22.8,16-16.08,0-25-11.54-25-26.58,0-16.18,10.78-26.4,24.69-26.4,15.61,0,24.78,13,23.74,29.14Zm.09-7.38h30c-.28-7.19-5.48-14.38-14.66-14.38C1419,324.43,1412,328.59,1411.19,338.81Z" transform="translate(0 0)"/><path d="M1494.25,317.9h8.61V362c0,10.31-1.89,14.66-4.82,17.88-3.69,4.25-10,6.71-17.6,6.71-11.63,0-19.3-5.29-20.9-15.6h9.17c1,4.54,4,8,11.83,8,4.63,0,8-1.23,10.4-3.79,1.8-2.08,3.31-4.25,3.31-11.25v-4.83c-3.12,5.39-7.94,8.8-16.17,8.8-11.26,0-21.57-9.08-21.57-25.45s10.31-25.45,21.57-25.45c8.23,0,13.05,3.5,16.17,8.9Zm-14,6.53c-8.42,0-14.38,6.43-14.38,18.07s6,18.17,14.38,18.17c7.57,0,14.38-5.21,14.38-18.17S1487.82,324.43,1480.25,324.43Z" transform="translate(0 0)"/><path d="M1521.4,346.19c.29,11,8.24,16.27,15.71,16.27s11.73-3.41,13.91-8.42h8.89c-2.27,8.71-10.41,16-22.8,16-16.08,0-25-11.54-25-26.58,0-16.18,10.79-26.4,24.7-26.4,15.61,0,24.78,13,23.74,29.14Zm.1-7.38h30c-.28-7.19-5.49-14.38-14.66-14.38C1529.26,324.43,1522.26,328.59,1521.5,338.81Z" transform="translate(0 0)"/><path d="M1578.24,325.57c2.93-4.83,7.85-8.52,16.46-8.52,12.3,0,16.75,7.95,16.75,19.59V368.8h-8.61V339.19c0-7.85-1.33-14.66-11.16-14.66-8.33,0-13.44,5.67-13.44,16.64V368.8h-8.61V317.9h8.61Z" transform="translate(0 0)"/><path d="M1629.46,346.19c.28,11,8.23,16.27,15.71,16.27s11.73-3.41,13.9-8.42H1668c-2.26,8.71-10.4,16-22.79,16-16.09,0-25-11.54-25-26.58,0-16.18,10.79-26.4,24.69-26.4,15.61,0,24.79,13,23.75,29.14Zm.1-7.38h30c-.29-7.19-5.49-14.38-14.67-14.38C1637.31,324.43,1630.31,328.59,1629.56,338.81Z" transform="translate(0 0)"/><path d="M1703,326.89a31.1,31.1,0,0,0-4.82-.38c-8,0-11.92,4.35-11.92,15.61V368.8h-8.61V317.9h8.42v8.9c2.55-5.77,7.66-8.9,14.38-9.18a23.42,23.42,0,0,1,2.55.1Z" transform="translate(0 0)"/><path d="M1745.38,317.9H1754v50.9h-8.61v-7.66c-3.12,5.39-8.42,8.89-16.65,8.89-11.63,0-21.57-9.56-21.57-26.49,0-16.65,9.94-26.49,21.57-26.49,8.23,0,13.53,3.5,16.65,8.9Zm-14.47,6.53c-8.8,0-14.57,6.91-14.57,19.11s5.77,19.11,14.57,19.11c7.66,0,14.85-5.68,14.85-19.11S1738.57,324.43,1730.91,324.43Z" transform="translate(0 0)"/><path d="M1769.55,305.13h8.61V317.9h9.65v6.91h-9.65V355c0,5.3.38,6.62,5.3,6.62h4.35v7.19h-6.24c-9.75,0-12-2.18-12-12.77V324.81h-8V317.9h8Z" transform="translate(0 0)"/><path d="M1804.85,317.9v50.9h-8.61V317.9Zm1.32-12.91a5.63,5.63,0,1,1-5.63-5.63A5.63,5.63,0,0,1,1806.17,305Z" transform="translate(0 0)"/><path d="M1863,343.54c0,18.45-12.58,26.49-24.4,26.49s-24.41-8-24.41-26.49,12.58-26.49,24.41-26.49S1863,325.09,1863,343.54Zm-24.4,18.92c7.85,0,15.23-5.86,15.23-18.92,0-13.62-7.38-18.92-15.23-18.92s-15.23,5-15.23,18.92C1823.4,357.16,1830.77,362.46,1838.63,362.46Z" transform="translate(0 0)"/><path d="M1881,325.57c2.93-4.83,7.85-8.52,16.46-8.52,12.3,0,16.74,7.95,16.74,19.59V368.8h-8.6V339.19c0-7.85-1.33-14.66-11.17-14.66-8.33,0-13.43,5.67-13.43,16.64V368.8h-8.61V317.9H1881Z" transform="translate(0 0)"/><path d="M1178.05,317.9v50.9h-8.61V317.9Zm1.33-12.91a5.63,5.63,0,1,1-5.63-5.63A5.63,5.63,0,0,1,1179.38,305Z" transform="translate(0 0)"/><path d="M1101.63,317.9v50.9H1093V317.9ZM1103,305a5.63,5.63,0,1,1-5.63-5.63A5.63,5.63,0,0,1,1103,305Z" transform="translate(0 0)"/></svg>